<?xml version="1.0" encoding="UTF-8" standalone="no"?>
<svg
   width="23in"
   height="14.222in"
   viewBox="0 0 1656.0026 1023.9856"
   version="1.1"
   id="svg1"
   xmlns="http://www.w3.org/2000/svg"
   xmlns:svg="http://www.w3.org/2000/svg">
  <defs
     id="defs1" />
  <path
     id="MI - Plus"
     fill="none"
     stroke="#000000"
     stroke-width="1"
     d="m 1380,687 h 53 v 32 c 0,3.03 -0.49,11.42 1.02,13.69 1.73,2.58 5.25,2.29 7.98,2.31 h 38 l -1,47 h -31 c -3.1,0 -10.24,-0.45 -12.69,1.17 -2.6,1.74 -2.29,5.08 -2.31,7.83 v 37 h -31 l -21.9537,-0.0267 -0.093,-45.76125 L 1365,782 h -31 v -22 l -0.013,-12.04635 0.046,-13.76826 L 1365,734 c 2.8999,-0.0174 10.47,0.45 12.69,-1.02 2.58,-1.73 2.29,-5.25 2.31,-7.98 z"
     style="fill:#48a830;stroke:none;stroke-opacity:1" />
  <path
     id="MI - Herzschlag"
     fill="none"
     stroke="#000000"
     stroke-width="1"
     d="m 1225,789 3.74,-13 13.5,-51 6.33,-21 4.8,-20 6.76,-25 c 1.13,-4.5 1.64,-7.36 6.89,-7.89 2.69,-0.27 6.24,-0.03 8,2.32 1.24,1.66 2.1,7.24 2.71,9.57 l 5.07,22 8.99,42 c 0.78,3.61 3.1,15.25 5.06,17.69 4.65,5.78 17.95,0.39 20.74,6.46 0.36,1.27 0.42,3.45 0,4.81 -0.81,5.67 -6.07,5.09 -10.58,5.03 -3.9,-0.06 -18.3,-0.59 -20.7,-2.59 -2.66,-2.21 -3.2,-8.06 -3.96,-11.4 l -6.77,-29 -3.64,-18.99 c -0.58,-2.05 -1.89,-5.48 -4.71,-4.52 -2.34,0.79 -3.52,5.38 -4.23,7.51 l -7,23 -4.71,18 -6.57,20 -6.14,23 -6.49,21 -4.22,14 c -0.51,2.04 -1.23,5.77 -2.69,7.26 -1.39,1.42 -4.08,1.91 -5.97,1.43 -3.35,-0.85 -4.08,-4.81 -4.83,-7.69 l -5.1,-21 -6.15,-24 -9.971,-38 c -2.1205,-9.68415 -13.469,17.13 -20.329,20.99 -3.96,2.2 -14.79,0.03 -19.83,0 h -51 c -2.9,0 -6.35,0.29 -8.77,-1.59 -4.45,-3.45 -3.91,-11.2 6.77,-11.4 h 57 c 2.31,0 5.63,0.22 7.62,-1.02 1.98,-1.24 4.67,-5.88 5.93,-7.98 l 11.63,-21 c 3.3,-5.21 5.97,-12.57 13.71,-9.26 4.77,2.03 7.5,15.33 8.74,20.26 l 11.85,44 c 2.35,7.23 4.5892,27.59375 8.52,17 z"
     style="fill:#48a830;stroke:none;stroke-opacity:1" />
  <path
     id="MI - Kopf"
     fill="none"
     stroke="black"
     stroke-width="1"
     d="m 1220,374 c 0,-11.47 1.07,-41.66 -2.47,-51 -2.53,-6.69 -8.39,-15.61 -12.11,-22 -11.96,-20.62 -25.13,-42.34 -25.42,-67 -0.25,-21.61 1.77,-32.54 8.67,-53 2.38,-7.09 6.14,-17.14 10.57,-23 9.48,-12.54 20.89,-20.33 34.76,-27.25 17.94,-8.95 37.92,-13.98 58,-13.75 23.71,0.28 53.31,8.94 72,23.67 19.26,15.17 33.96,43.62 33.96,68.33 0,0 0,14 0,14 0,0 -0.95,9 -0.95,9 -0.05,2.54 -0.08,5.55 0.63,8 1.34,4.67 15.47,26.43 19.05,32 2.37,3.69 7.6,10.67 7.64,15 0.12,10.53 -16.08,7.4 -20.73,13.28 -4.22,5.32 2.11,10.41 1.16,16.72 -0.79,5.23 -5.15,7.3 -5.43,10.42 -0.23,2.62 2.86,5.16 1.52,8.41 -1.15,2.77 -6.43,5.52 -8.1,10.17 -1.64,4.59 2.45,13.15 1.02,21 -2.34,12.92 -21.05,10.11 -30.77,10 -11.72,-0.14 -19.5,-5.31 -29,-4.96 -13.63,0.51 -9.23,9.27 -24,8.95 0,0 -9,-0.9 -9,-0.9 0,0 -45,-3.09 -45,-3.09 z m 80,-208 c -2.32,-0.19 -4.52,-0.13 -5.98,-2.31 -3.12,-4.69 2.58,-15.3 -6.03,-15.53 -7.34,-0.19 -5.8,6.93 -6.01,11.84 -0.07,1.61 -0.14,4.96 -2.24,5.38 -2.34,0.46 -3.33,-2.68 -3.59,-4.39 -0.57,-3.57 1.35,-10.4 -3.3,-11.67 -8.91,-2.45 -7.45,6.53 -7.91,11.68 -0.2,2.33 -1.37,6.43 -4.64,4.83 -3.98,-1.94 -1.01,-10.31 -3.32,-13.23 -2.02,-2.56 -8.22,-1.89 -9.96,0.71 -1.47,2.22 -1.02,9.79 -1.02,12.69 -11.87,2.25 -12,6.65 -12,17 -3.27,0 -13.33,-0.55 -15.69,1.02 -2.98,1.99 -2.98,7.97 0,9.96 2.36,1.57 12.42,1.02 15.53,1.02 0.12,1.23 0.17,2.75 0,3.94 -2.3,7.84 -12.53,1.1 -16.24,4.67 -2.21,2.13 -2.14,8.32 0.83,9.82 1.86,0.93 12.79,0.57 15.57,0.57 0,0 0,6 0,6 -3.27,0 -13.33,-0.55 -15.69,1.02 -2.98,1.99 -2.98,7.97 0,9.96 2.36,1.57 12.42,1.02 15.69,1.02 0,0 0,7 0,7 -8.42,0 -19.27,-2.53 -17.85,6.94 1.08,7.18 10.64,2.11 15.71,5.08 3.14,1.85 3,5.15 5.03,7.75 2.5,3.23 5.41,3.13 9.11,3.23 0,3.72 -0.55,12.94 1.17,15.85 2.21,3.73 7.45,3.73 9.66,0 1.72,-2.91 1.17,-12.13 1.17,-15.85 0,0 7,0 7,0 0,3.41 -0.54,13.23 1.02,15.77 2.26,3.7 7.7,3.7 9.96,0 1.56,-2.54 1.02,-12.36 1.02,-15.77 0,0 4,0 4,0 0,2.78 -0.36,13.71 0.57,15.57 1.69,3.36 8.45,2.85 10.41,0 1.57,-2.28 1.02,-12.36 1.02,-15.57 0,0 6,0 6,0 0,3.14 -0.39,13.43 0.74,15.75 1.74,3.53 7.93,3.78 10.24,0 1.55,-2.51 1.02,-12.34 1.02,-15.75 9.61,-0.01 14.96,-0.88 16,-12 2.98,0 11.37,0.49 13.57,-1.02 2.51,-1.73 3.16,-6.99 0.69,-8.99 -1.91,-1.55 -12.34,-0.99 -15.26,-0.99 0,0 0,-7 0,-7 3.16,0 12.36,0.53 14.69,-1.02 3.39,-2.26 2.71,-8.55 -0.92,-10.24 -2.32,-1.09 -10.79,-0.74 -13.77,-0.74 0,0 0,-6 0,-6 0,0 9,0 9,0 9.78,-0.18 9.73,-6.81 7.26,-9.4 -3.77,-3.94 -12.96,1.56 -15.1,-5.66 -0.17,-1.19 -0.12,-2.71 0,-3.94 2.87,0 11.26,0.49 13.47,-1.02 3.09,-2.03 2.88,-7.79 0,-9.81 -2.51,-1.68 -10.44,-1.17 -13.63,-1.17 -0.58,-12.69 -1.48,-16.38 -15,-17 0,-3.33 0.44,-10.12 -1.17,-12.85 -1.72,-2.9 -7.44,-4.54 -9.81,-1.55 -1.56,1.98 -1.02,11.51 -1.02,14.4 z"
     style="fill:#48a830;stroke:none;stroke-opacity:1" />
  <path
     id="MI - I"
     fill="none"
     stroke="black"
     stroke-width="1"
     d="m 1422.15,405.02 c 5.01,-1.78 12.41,-1.02 17.85,-1.02 0,0 34,0 34,0 7.8,0.14 6.99,3.14 7,10 0,0 0,183 0,183 0,0 0,48 0,48 -0.14,7.49 -2.26,6.99 -9,7 0,0 -46,0 -46,0 -6.61,-0.13 -7.87,-1.39 -8,-8 0,0 0,-46 0,-46 0,0 0,-53 0,-53 0,0 1,-17 1,-17 0,0 0,-74 0,-74 0,0 0,-39 0,-39 0.01,-4.72 -0.6,-6.66 3.15,-9.98 z"
     style="fill:#161616;fill-opacity:1;stroke:none;stroke-opacity:1" />
  <path
     id="MI - M"
     fill="none"
     stroke="#000000"
     stroke-width="1"
     d="m 1111,651 c -2.38,-13.27 -0.02,-18.95 0,-31 V 590 460 418 c -0.01,-3.28 -0.8,-9.11 0.61,-11.85 1.9,-3.71 5.86,-3.14 9.39,-3.15 h 54 c 2.97,0.01 6.27,-0.29 8.79,1.6 2.81,2.1 4.54,7.18 5.93,10.4 l 8.97,18 8.28,18 24.9258,58.18015 c 5.25,10.24 10.1661,35.84129 13.26,26 l 5.68,-11 4.63,-11 7.58,-15 15.36,-33 12.01,-26 7.3,-14 c 1.55,-3.48 6.9342,-18.33015 9.6942,-20.16015 1.89,-1.24 5.37,-1.02 7.59,-1.02 h 53 c 10.15,0.14 10.99,3.94 11,13 v 181 37 c 0,4.1 0.67,11.57 -1.74,14.85 -2.58,3.54 -6.38,3.14 -10.26,3.15 h -19 l -16,-1 c -10.43,-0.02 -14.98,1.21 -15,-11 l -1.8442,-84.81985 c -0.1928,-8.8679 4.1166,-60.09144 -1,-43 l -13.51,29 -7.27,17 -6.03,11 -12.75,27 c -2.67,4.86 -6.2058,16.38985 -9.9858,18.79985 -1.95,1.24 -5.34,1.02 -7.61,1.02 h -22 c -2.27,0 -5.66,0.22 -7.61,-1.02 -2.14,-1.37 -4.01,-5.67 -5.13,-7.98 l -8.51,-18 -9.64,-21 -6.85,-13 -6.58,-15 -5.42,-10 c -3.74,-7.3 -10.5789,-30.11024 -11.7188,-20.48204 L 1173,589 l 1,14 v 33 l -1.17,13.43 -7.83,1.57 z"
     style="fill:#161616;fill-opacity:1;stroke:none;stroke-opacity:1" />
  <path
     id="DS - Balken 1"
     fill="none"
     stroke="#000000"
     stroke-width="1"
     d="m 849.03,695.09 2.91,-3.15 h 38.09 l 2,3.03 c 0,0 -0.09,154.97 -0.06,154.97 0.03,0 -41.94,0 -41.94,0.03 0,0.03 -0.97,-2.97 -0.97,-2.97 0,0 -0.06,-151.06 -0.03,-151.91 z"
     style="fill:#4169ff;fill-opacity:1;stroke:none;stroke-opacity:1" />
  <path
     id="DS - Balken 2"
     fill="none"
     stroke="#000000"
     stroke-width="1"
     d="m 780.06,737 c 0.06,-0.06 2.88,-1.94 2.88,-1.94 L 819.06,735 c 0,0 2.88,1.88 2.94,1.88 0.06,0 0.12,110.87 0.12,110.87 l -4.24,2.37 -35.44,-0.06 -2.48,-2.09 c 0,-0.17 0.04,-110.91 0.1,-110.97 z"
     style="fill:#4169ff;fill-opacity:1;stroke:none;stroke-opacity:1" />
  <path
     id="DS - Balken 3"
     fill="none"
     stroke="#000000"
     stroke-width="1"
     d="m 712.05,850.02 c 0.12,0 41.01,-0.08 41.01,-0.08 l -0.1,-77.9 -1.79,-2.04 -38.17,0.09 -1.035,1.945 c 0.225,0.685 -0.045,77.985 0.085,77.985 z"
     style="fill:#4169ff;fill-opacity:1;stroke:none;stroke-opacity:1" />
  <path
     id="DS - Diagram Achsen"
     fill="none"
     stroke="#000000"
     stroke-width="1"
     d="m 658,734.18 0.73,-3.09 3.27,-0.91 2,3.09 v 131.09 l 249.82,-0.36 3.45,3.82 c 0,0 -0.72,4.54 -0.91,4.54 -0.18,0 -256.38,-0.38 -256.38,-0.38 0,0 -1.74,-2.82 -2.065,-3.08 z"
     style="fill:#4169ff;fill-opacity:1;stroke:none;stroke-opacity:1" />
  <path
     id="DS - S3"
     fill="none"
     stroke="#000000"
     stroke-width="1"
     d="m 991.45,479.64 c 4.37,-12.73 -9.45,-49.09 -26.72,-56 -17.46,-14.37 -35.28,-18.55 -52.55,-20 l -0.91,46.18 c 16.73,0.73 31.82,13.45 33.73,30.82 z"
     style="fill:#161616;fill-opacity:1;stroke:none;stroke-opacity:1" />
  <path
     id="DS- S"
     fill="none"
     stroke="#000000"
     stroke-width="1"
     d="m 854.91,575.73 c 2.82,14 10.91,39.91 44.18,39.91 l 0.66,42.86 c -24.5,4 -90,-7.25 -92.735,-77.68 z m 57.54,82.94682 h 22.4936 C 970.3236,649.05682 991.5,627.75 995,599.62 c 5.07,-42.89 -12,-63.37 -37.88,-76.74 0,0 -71.62,-27 -71.5,-27.13 C 875.5,492 865.75,485 866.62,476.62 l 0.38,-9.87 c 4.38,-10.5 23.88,-17.63 32.38,-16.63 L 899,403.27 c -31.45,-3 -87.64,25.82 -86.18,67.09 -6.82,39.89 26.93,63.89 37.41,67.41 9.38,6.84 83.81,28.84 89.82,37.92 5.3,5.05 6.14,21.37 -2.05,27.58 -5.81,7.17 -16.44,11.42 -25.91,11.415 z"
     style="fill:#161616;fill-opacity:1;stroke:none;stroke-opacity:1" />
  <path
     id="DS - STATISTIK"
     fill="none"
     stroke="#000000"
     stroke-width="1"
     d="m 639.73,332.18 c 7.76,3.39 5.66,54.73 -36.28,36.18 l -10,-12.27 c -4.27,-3 -3.27,-40.82 35.55,-33.82 l 43.82,-44.63 c -12.73,-15 1,-58 37.18,-40.09 9.78,4.83 12.94,17.26 12.45,26.27 l 24.43,11.12 c 2.24,-5.19 16,-10.44 27.87,-4.75 l 82.5,-81.94 C 838,168.75 859,120.75 897,138.38 c 7.88,3.18 17.27,12.53 18.09,24.8 l -0.64,12.73 c -3.18,13 -21.45,31.27 -45.36,21 l -83.36,84.36 c 6.63,11.64 -2.55,31.73 -17,33.09 l -10.28,0.46 c -11.63,-2 -20.9,-14.82 -18.36,-27 L 716,277.73 c -5.36,8.09 -19.38482,14.09901 -32.11482,8.36901 C 668.62033,301.41395 655.01046,316.78254 639.73,332.18 Z"
     style="fill:#4169ff;stroke:none;stroke-opacity:1" />
  <path
     id="DS - D1"
     fill="none"
     stroke="#000000"
     stroke-width="1"
     d="m 647.62,657.12 -55,0.88 -3.37,-2.62 -0.75,-243.26 3.62,-4.62 55.495,-0.605 z"
     style="fill:#161616;fill-opacity:1;stroke:none;stroke-opacity:1" />
  <path
     id="DS - D2"
     fill="none"
     stroke="#000000"
     stroke-width="1"
     d="m 726,566.18 c 1.09,13.18 -14.55,45 -38.64,45.73 h -27.27 v 44.91 l 34,0.36 C 749,656.5 780.75,604 782.25,567 c 0.25,0 1.13,-53.12 1.13,-53.12 -2.5,-19.5 -6.05,-92.21 -83.63,-106 l -39.83926,-0.24 -7.4e-4,47 26.73,0.18 c 14.61,-0.07 41.32,22.44 39.53,48.875 z"
     style="fill:#161616;fill-opacity:1;stroke:none;stroke-opacity:1" />
  <path
     id="DS - Statistik verbinder"
     fill="none"
     stroke="#000000"
     stroke-width="1"
     d="m 843.09,330 0.1,63 c 0,0 -27.37,7.73 -42.12,30.02 l -7.07,0.02 0.075,-92.98 z m 28.87,57.96 13.08,0.08 c 0.21,-5.19 32.08,-8.71 32.05,-7.98 L 916.91,263.87 871.99,264 Z M 660,612.13 660.09,612"
     style="fill:#4169ff;fill-opacity:1;stroke:none;stroke-opacity:1" />
  <path
     id="DS - Statistik verbinder #1"
     fill="none"
     stroke="#000000"
     stroke-width="1"
     d="M 769.13233,370.11919 769.2396,409.77475 758.45,409.73 C 750,398.45 733.29,387.68 720.02,389.04 l 0.0511,-19.02 z"
     style="fill:#4169ff;fill-opacity:1;stroke:none;stroke-opacity:1" />
  <path
     id="IT - Leiterplatte 1"
     fill="none"
     stroke="#000000"
     stroke-width="1"
     d="m 230.03,671.94 0.03,31.81 -18,18.19 -0.12,43.12 c -33.13,13.25 -10.98,49.46 3.08,47.96 h 10.02 c 14.41,2.16 36.14,-35.66 3.14,-48.11 L 228,728.45 246.03,709 l 0.015,-36.985 z m 61.98,0.06 0.03,51.96 27.99,26.07 L 320,782.02 301.98,782 302.05,757.03 276.03,730.97 276,672 Z m 26.93,-0.06 17,-0.06 0.12,30 22.94,22 52.97,0.09 46.06,42.06 12.94,-0.03 c 7.94,-0.27 27.82,27.37 0.58,39.09 l -4.14,0.82 c 0,0 -5.41,0.12 -5.44,0.12 C 448.74,806.7 440,787 446.3,777.09 l -38.03,-37 -56.36,0.09 -32.955,-33.45 z"
     style="fill:#8800ff;fill-opacity:1;stroke:none;stroke-opacity:1" />
  <path
     id="IT - Leiterplatte 2"
     fill="none"
     stroke="black"
     stroke-width="1"
     d="m 167.04,254.91 c -0.04,0.05 0.05,50 0.05,50 0,0 28.91,29.05 28.91,29.05 0,0 -0.13,51.08 -0.13,51.08 0,0 18,-0.04 18,-0.04 0,0 0.26,-58.96 0.26,-58.96 0,0 -28.09,-27.04 -28.09,-27.04 0,0 0.34,-43.94 0.34,-43.94 6.96,1.05 38.53,-33.61 -2.29,-55.23 0,0 -14.31,-0.05 -14.31,-0.05 -15.78,-1.69 -40.19,40.01 -2.69,55.13 m 17.17,-55.48 m 11.24,93.13"
     style="fill:#8800ff;fill-opacity:1;stroke:none;stroke-opacity:1" />
  <path
     id="IT - Leiterplatte 3"
     fill="none"
     stroke="black"
     stroke-width="1"
     d="m 261.94,385.09 c 0,0 -1.03,-186.27 -1.03,-186.27 12.91,-1 48.82,-41 0.27,-66.55 0,0 -13.91,-0.18 -13.91,-0.18 -34.63,5.64 -42.24,55.94 -4.24,67.85 0,0 -0.03,185.03 -0.03,185.03 0,0 19,0.03 19,0.03 m 24,-224.18 m -43.05,40.68"
     style="fill:#8800ff;fill-opacity:1;stroke:none;stroke-opacity:1" />
  <path
     id="IT - Leiterplatte 4"
     fill="none"
     stroke="#000000"
     stroke-width="1"
     d="m 384.01,241 c 5.49,2.37 32.49911,-31.3181 -2.15721,-46.20844 l -10.76634,-0.0373 -0.135,-0.055 c -28.085,7.955 -19.79145,42.84078 -3.03645,46.30078 l 0.085,13 -19.53,19.27 -28.97,0.59 -32.16,32.04 -0.77,78.57998 17.32,0.06 0.24,-71.78 c 0,0 22.82,-21.17 22.7,-21.17 -0.12,0 26.13,-0.11 26.02,0 -0.12,0.12 31.11,-31.81 31.11,-31.81 L 384,241"
     style="fill:#8800ff;fill-opacity:1;stroke:none;stroke-opacity:1" />
  <path
     id="IT - &gt;"
     fill="none"
     stroke="#000000"
     stroke-width="1"
     d="m 384.19,822.12 27.5,22.26 0.06,2.5 -27.63,22.06 -0.18,15.94 3.62,1.37 c 0,0 42.63,-35.37 42.69,-35.37 0.06,0 0,-8.57 0,-8.57 l -41.37,-37.5 c 0,0 -5.07,0.07 -4.94,0.07 z"
     style="fill:#8800ff;fill-opacity:1;stroke:none;stroke-opacity:1" />
  <path
     id="IT - /"
     fill="none"
     stroke="#000000"
     stroke-width="1"
     d="m 350.62,808.88 -6.93,24.12 -17.88,60.88 -0.06,6.31 3.19,2.31 3.31,1.25 7,-5.75 4.69,-14.12 26.62,-90.94 c 0,0 -0.56,-4.13 -0.56,-4.19 0,-0.06 -3.38,-3.56 -3.38,-3.56 l -4.56,-0.07 -3.405,0.41 z"
     style="fill:#8800ff;fill-opacity:1;stroke:none;stroke-opacity:1" />
  <path
     id="IT - &lt;"
     fill="none"
     stroke="#000000"
     stroke-width="1"
     d="m 311.12,886.06 c -0.03,0 0.91,-0.97 0.91,-0.97 l 0.03,-16 L 285,847 l 0.06,-1.94 27,-23.06 c 0,0 0.03,-16.09 0,-16.09 -0.03,0 -3.94,-2.07 -3.94,-2.07 l -42.18,37.19 c 0,0 0.09,9.97 0.06,9.97 -0.03,0 41.895,35.03 41.895,35.03 0,0 3.265,0.03 3.225,0.03 z"
     style="fill:#8800ff;fill-opacity:1;stroke:none;stroke-opacity:1" />
  <path
     id="IT - text"
     fill="none"
     stroke="#000000"
     stroke-width="1"
     d="m 182.27,434.09 -0.18,-31.18 57,0.09 -0.09,247.94 -55.67,-0.27 -1,-217 M 274.93276,401.87429 273.67,451.67 343.33,451 l -1,200.67 H 401 v -201 l 71,-0.34 -0.23724,-47.95571 z"
     style="fill:#161616;fill-opacity:1;stroke:none;stroke-opacity:1" />
  <rect
     style="fill:#48a830;fill-opacity:1;stroke:none;stroke-width:0.725396;stroke-opacity:1"
     id="rect3"
     width="54.614483"
     height="56.753201"
     x="1253.3877"
     y="183.94293"
     ry="7.385107" />
</svg>
