<?xml version="1.0" encoding="UTF-8" standalone="no"?>
<!DOCTYPE svg PUBLIC "-//W3C//DTD SVG 20010904//EN"
              "http://www.w3.org/TR/2001/REC-SVG-20010904/DTD/svg10.dtd">

<svg xmlns="http://www.w3.org/2000/svg"
     width="21.3333in" height="14.2222in"
     viewBox="0 0 1536 1024">
  <path id="MI - Plus"
        fill="none" stroke="black" stroke-width="1"
        d="M 1380.00,687.00
           C 1380.00,687.00 1433.00,687.00 1433.00,687.00
             1433.00,687.00 1433.00,719.00 1433.00,719.00
             1433.00,722.03 1432.51,730.42 1434.02,732.69
             1435.75,735.27 1439.27,734.98 1442.00,735.00
             1442.00,735.00 1480.00,735.00 1480.00,735.00
             1480.00,735.00 1479.00,782.00 1479.00,782.00
             1479.00,782.00 1448.00,782.00 1448.00,782.00
             1444.90,782.00 1437.76,781.55 1435.31,783.17
             1432.71,784.91 1433.02,788.25 1433.00,791.00
             1433.00,791.00 1433.00,828.00 1433.00,828.00
             1433.00,828.00 1402.00,828.00 1402.00,828.00
             1402.00,828.00 1380.00,827.00 1380.00,827.00
             1380.00,827.00 1380.00,783.00 1380.00,783.00
             1380.00,783.00 1365.00,782.00 1365.00,782.00
             1365.00,782.00 1334.00,782.00 1334.00,782.00
             1334.00,782.00 1334.00,760.00 1334.00,760.00
             1334.00,760.00 1334.96,748.00 1334.96,748.00
             1334.96,748.00 1334.96,734.00 1334.96,734.00
             1334.96,734.00 1365.00,734.00 1365.00,734.00
             1367.90,734.00 1375.47,734.45 1377.69,732.98
             1380.27,731.25 1379.98,727.73 1380.00,725.00
             1380.00,725.00 1380.00,687.00 1380.00,687.00 Z" />
  <path id="MI - Herzschlag"
        fill="none" stroke="black" stroke-width="1"
        d="M 1225.00,789.00
           C 1225.00,789.00 1228.74,776.00 1228.74,776.00
             1228.74,776.00 1242.24,725.00 1242.24,725.00
             1242.24,725.00 1248.57,704.00 1248.57,704.00
             1248.57,704.00 1253.37,684.00 1253.37,684.00
             1253.37,684.00 1260.13,659.00 1260.13,659.00
             1261.26,654.50 1261.77,651.64 1267.02,651.11
             1269.71,650.84 1273.26,651.08 1275.02,653.43
             1276.26,655.09 1277.12,660.67 1277.73,663.00
             1277.73,663.00 1282.80,685.00 1282.80,685.00
             1282.80,685.00 1291.79,727.00 1291.79,727.00
             1292.57,730.61 1294.89,742.25 1296.85,744.69
             1301.50,750.47 1314.80,745.08 1317.59,751.15
             1317.95,752.42 1318.01,754.60 1317.59,755.96
             1316.78,761.63 1311.52,761.05 1307.01,760.99
             1303.11,760.93 1288.71,760.40 1286.31,758.40
             1283.65,756.19 1283.11,750.34 1282.35,747.00
             1282.35,747.00 1275.58,718.00 1275.58,718.00
             1275.58,718.00 1271.94,699.01 1271.94,699.01
             1271.36,696.96 1270.05,693.53 1267.23,694.49
             1264.89,695.28 1263.71,699.87 1263.00,702.00
             1263.00,702.00 1256.00,725.00 1256.00,725.00
             1256.00,725.00 1251.29,743.00 1251.29,743.00
             1251.29,743.00 1244.72,763.00 1244.72,763.00
             1244.72,763.00 1238.58,786.00 1238.58,786.00
             1238.58,786.00 1232.09,807.00 1232.09,807.00
             1232.09,807.00 1227.87,821.00 1227.87,821.00
             1227.36,823.04 1226.64,826.77 1225.18,828.26
             1223.79,829.68 1221.10,830.17 1219.21,829.69
             1215.86,828.84 1215.13,824.88 1214.38,822.00
             1214.38,822.00 1209.28,801.00 1209.28,801.00
             1209.28,801.00 1203.13,777.00 1203.13,777.00
             1203.13,777.00 1193.00,739.00 1193.00,739.00
             1183.17,742.43 1179.69,756.13 1172.83,759.99
             1168.87,762.19 1158.04,760.02 1153.00,759.99
             1153.00,759.99 1102.00,759.99 1102.00,759.99
             1099.10,759.99 1095.65,760.28 1093.23,758.40
             1088.78,754.95 1089.32,747.20 1100.00,747.00
             1100.00,747.00 1157.00,747.00 1157.00,747.00
             1159.31,747.00 1162.63,747.22 1164.62,745.98
             1166.60,744.74 1169.29,740.10 1170.55,738.00
             1170.55,738.00 1182.18,717.00 1182.18,717.00
             1185.48,711.79 1188.15,704.43 1195.89,707.74
             1200.66,709.77 1203.39,723.07 1204.63,728.00
             1204.63,728.00 1216.48,772.00 1216.48,772.00
             1218.83,779.23 1217.89,784.89 1225.00,789.00 Z" />
  <path id="MI - Kopf"
        fill="none" stroke="black" stroke-width="1"
        d="M 1220.00,374.00
           C 1220.00,362.53 1221.07,332.34 1217.53,323.00
             1215.00,316.31 1209.14,307.39 1205.42,301.00
             1193.46,280.38 1180.29,258.66 1180.00,234.00
             1179.75,212.39 1181.77,201.46 1188.67,181.00
             1191.05,173.91 1194.81,163.86 1199.24,158.00
             1208.72,145.46 1220.13,137.67 1234.00,130.75
             1251.94,121.80 1271.92,116.77 1292.00,117.00
             1315.71,117.28 1345.31,125.94 1364.00,140.67
             1383.26,155.84 1397.96,184.29 1397.96,209.00
             1397.96,209.00 1397.96,223.00 1397.96,223.00
             1397.96,223.00 1397.01,232.00 1397.01,232.00
             1396.96,234.54 1396.93,237.55 1397.64,240.00
             1398.98,244.67 1413.11,266.43 1416.69,272.00
             1419.06,275.69 1424.29,282.67 1424.33,287.00
             1424.45,297.53 1408.25,294.40 1403.60,300.28
             1399.38,305.60 1405.71,310.69 1404.76,317.00
             1403.97,322.23 1399.61,324.30 1399.33,327.42
             1399.10,330.04 1402.19,332.58 1400.85,335.83
             1399.70,338.60 1394.42,341.35 1392.75,346.00
             1391.11,350.59 1395.20,359.15 1393.77,367.00
             1391.43,379.92 1372.72,377.11 1363.00,377.00
             1351.28,376.86 1343.50,371.69 1334.00,372.04
             1320.37,372.55 1324.77,381.31 1310.00,380.99
             1310.00,380.99 1301.00,380.09 1301.00,380.09
             1301.00,380.09 1256.00,377.00 1256.00,377.00
             1256.00,377.00 1220.00,374.00 1220.00,374.00 Z
           M 1300.00,166.00
           C 1297.68,165.81 1295.48,165.87 1294.02,163.69
             1290.90,159.00 1296.60,148.39 1287.99,148.16
             1280.65,147.97 1282.19,155.09 1281.98,160.00
             1281.91,161.61 1281.84,164.96 1279.74,165.38
             1277.40,165.84 1276.41,162.70 1276.15,160.99
             1275.58,157.42 1277.50,150.59 1272.85,149.32
             1263.94,146.87 1265.40,155.85 1264.94,161.00
             1264.74,163.33 1263.57,167.43 1260.30,165.83
             1256.32,163.89 1259.29,155.52 1256.98,152.60
             1254.96,150.04 1248.76,150.71 1247.02,153.31
             1245.55,155.53 1246.00,163.10 1246.00,166.00
             1234.13,168.25 1234.00,172.65 1234.00,183.00
             1230.73,183.00 1220.67,182.45 1218.31,184.02
             1215.33,186.01 1215.33,191.99 1218.31,193.98
             1220.67,195.55 1230.73,195.00 1233.84,195.00
             1233.96,196.23 1234.01,197.75 1233.84,198.94
             1231.54,206.78 1221.31,200.04 1217.60,203.61
             1215.39,205.74 1215.46,211.93 1218.43,213.43
             1220.29,214.36 1231.22,214.00 1234.00,214.00
             1234.00,214.00 1234.00,220.00 1234.00,220.00
             1230.73,220.00 1220.67,219.45 1218.31,221.02
             1215.33,223.01 1215.33,228.99 1218.31,230.98
             1220.67,232.55 1230.73,232.00 1234.00,232.00
             1234.00,232.00 1234.00,239.00 1234.00,239.00
             1225.58,239.00 1214.73,236.47 1216.15,245.94
             1217.23,253.12 1226.79,248.05 1231.86,251.02
             1235.00,252.87 1234.86,256.17 1236.89,258.77
             1239.39,262.00 1242.30,261.90 1246.00,262.00
             1246.00,265.72 1245.45,274.94 1247.17,277.85
             1249.38,281.58 1254.62,281.58 1256.83,277.85
             1258.55,274.94 1258.00,265.72 1258.00,262.00
             1258.00,262.00 1265.00,262.00 1265.00,262.00
             1265.00,265.41 1264.46,275.23 1266.02,277.77
             1268.28,281.47 1273.72,281.47 1275.98,277.77
             1277.54,275.23 1277.00,265.41 1277.00,262.00
             1277.00,262.00 1281.00,262.00 1281.00,262.00
             1281.00,264.78 1280.64,275.71 1281.57,277.57
             1283.26,280.93 1290.02,280.42 1291.98,277.57
             1293.55,275.29 1293.00,265.21 1293.00,262.00
             1293.00,262.00 1299.00,262.00 1299.00,262.00
             1299.00,265.14 1298.61,275.43 1299.74,277.75
             1301.48,281.28 1307.67,281.53 1309.98,277.75
             1311.53,275.24 1311.00,265.41 1311.00,262.00
             1320.61,261.99 1325.96,261.12 1327.00,250.00
             1329.98,250.00 1338.37,250.49 1340.57,248.98
             1343.08,247.25 1343.73,241.99 1341.26,239.99
             1339.35,238.44 1328.92,239.00 1326.00,239.00
             1326.00,239.00 1326.00,232.00 1326.00,232.00
             1329.16,232.00 1338.36,232.53 1340.69,230.98
             1344.08,228.72 1343.40,222.43 1339.77,220.74
             1337.45,219.65 1328.98,220.00 1326.00,220.00
             1326.00,220.00 1326.00,214.00 1326.00,214.00
             1326.00,214.00 1335.00,214.00 1335.00,214.00
             1344.78,213.82 1344.73,207.19 1342.26,204.60
             1338.49,200.66 1329.30,206.16 1327.16,198.94
             1326.99,197.75 1327.04,196.23 1327.16,195.00
             1330.03,195.00 1338.42,195.49 1340.63,193.98
             1343.72,191.95 1343.51,186.19 1340.63,184.17
             1338.12,182.49 1330.19,183.00 1327.00,183.00
             1326.42,170.31 1325.52,166.62 1312.00,166.00
             1312.00,162.67 1312.44,155.88 1310.83,153.15
             1309.11,150.25 1303.39,148.61 1301.02,151.60
             1299.46,153.58 1300.00,163.11 1300.00,166.00 Z" />
  <path id="MI - I"
        fill="none" stroke="black" stroke-width="1"
        d="M 1422.15,405.02
           C 1427.16,403.24 1434.56,404.00 1440.00,404.00
             1440.00,404.00 1474.00,404.00 1474.00,404.00
             1481.80,404.14 1480.99,407.14 1481.00,414.00
             1481.00,414.00 1481.00,597.00 1481.00,597.00
             1481.00,597.00 1481.00,645.00 1481.00,645.00
             1480.86,652.49 1478.74,651.99 1472.00,652.00
             1472.00,652.00 1426.00,652.00 1426.00,652.00
             1419.39,651.87 1418.13,650.61 1418.00,644.00
             1418.00,644.00 1418.00,598.00 1418.00,598.00
             1418.00,598.00 1418.00,545.00 1418.00,545.00
             1418.00,545.00 1419.00,528.00 1419.00,528.00
             1419.00,528.00 1419.00,454.00 1419.00,454.00
             1419.00,454.00 1419.00,415.00 1419.00,415.00
             1419.01,410.28 1418.40,408.34 1422.15,405.02 Z" />
  <path id="MI - M"
        fill="none" stroke="black" stroke-width="1"
        d="M 1111.00,651.00
           C 1108.62,637.73 1110.98,632.05 1111.00,620.00
             1111.00,620.00 1111.00,590.00 1111.00,590.00
             1111.00,590.00 1111.00,460.00 1111.00,460.00
             1111.00,460.00 1111.00,418.00 1111.00,418.00
             1110.99,414.72 1110.20,408.89 1111.61,406.15
             1113.51,402.44 1117.47,403.01 1121.00,403.00
             1121.00,403.00 1175.00,403.00 1175.00,403.00
             1177.97,403.01 1181.27,402.71 1183.79,404.60
             1186.60,406.70 1188.33,411.78 1189.72,415.00
             1189.72,415.00 1198.69,433.00 1198.69,433.00
             1198.69,433.00 1206.97,451.00 1206.97,451.00
             1206.97,451.00 1233.74,505.00 1233.74,505.00
             1238.99,515.24 1239.48,521.17 1247.00,531.00
             1247.00,531.00 1252.68,520.00 1252.68,520.00
             1252.68,520.00 1257.31,509.00 1257.31,509.00
             1257.31,509.00 1264.89,494.00 1264.89,494.00
             1264.89,494.00 1280.25,461.00 1280.25,461.00
             1280.25,461.00 1292.26,435.00 1292.26,435.00
             1292.26,435.00 1299.56,421.00 1299.56,421.00
             1301.11,417.52 1304.65,406.85 1307.41,405.02
             1309.30,403.78 1312.78,404.00 1315.00,404.00
             1315.00,404.00 1368.00,404.00 1368.00,404.00
             1378.15,404.14 1378.99,407.94 1379.00,417.00
             1379.00,417.00 1379.00,598.00 1379.00,598.00
             1379.00,598.00 1379.00,635.00 1379.00,635.00
             1379.00,639.10 1379.67,646.57 1377.26,649.85
             1374.68,653.39 1370.88,652.99 1367.00,653.00
             1367.00,653.00 1348.00,653.00 1348.00,653.00
             1348.00,653.00 1332.00,652.00 1332.00,652.00
             1321.57,651.98 1317.02,653.21 1317.00,641.00
             1317.00,641.00 1317.00,552.00 1317.00,552.00
             1317.00,543.13 1317.92,515.76 1316.00,509.00
             1316.00,509.00 1302.49,538.00 1302.49,538.00
             1302.49,538.00 1295.22,555.00 1295.22,555.00
             1295.22,555.00 1289.19,566.00 1289.19,566.00
             1289.19,566.00 1276.44,593.00 1276.44,593.00
             1273.77,597.86 1268.39,613.57 1264.61,615.98
             1262.66,617.22 1259.27,617.00 1257.00,617.00
             1257.00,617.00 1235.00,617.00 1235.00,617.00
             1232.73,617.00 1229.34,617.22 1227.39,615.98
             1225.25,614.61 1223.38,610.31 1222.26,608.00
             1222.26,608.00 1213.75,590.00 1213.75,590.00
             1213.75,590.00 1204.11,569.00 1204.11,569.00
             1204.11,569.00 1197.26,556.00 1197.26,556.00
             1197.26,556.00 1190.68,541.00 1190.68,541.00
             1190.68,541.00 1185.26,531.00 1185.26,531.00
             1181.52,523.70 1178.32,512.74 1173.00,507.00
             1173.00,507.00 1173.00,589.00 1173.00,589.00
             1173.00,589.00 1174.00,603.00 1174.00,603.00
             1174.00,603.00 1174.00,636.00 1174.00,636.00
             1174.00,636.00 1172.83,649.43 1172.83,649.43
             1172.83,649.43 1165.00,651.00 1165.00,651.00
             1165.00,651.00 1111.00,651.00 1111.00,651.00 Z" />
  <path id="DS - Balken 1"
        fill="none" stroke="black" stroke-width="1"
        d="M 849.03,695.09
           C 849.03,695.09 851.94,691.94 851.94,691.94
             851.94,691.94 890.03,691.94 890.03,691.94
             890.03,691.94 892.03,694.97 892.03,694.97
             892.03,694.97 891.94,849.94 891.97,849.94
             892.00,849.94 850.03,849.94 850.03,849.97
             850.03,850.00 849.06,847.00 849.06,847.00
             849.06,847.00 849.00,695.94 849.03,695.09" />
  <path id="DS - Balken 2"
        fill="none" stroke="black" stroke-width="1"
        d="M 779.98,848.00
           C 779.96,847.80 780.00,737.06 780.06,737.00
             780.12,736.94 782.94,735.06 782.94,735.06
             782.94,735.06 819.06,735.00 819.06,735.00
             819.06,735.00 821.94,736.88 822.00,736.88
             822.06,736.88 822.12,847.75 822.12,847.75
             822.12,847.75 817.88,850.12 817.88,850.12
             817.88,850.12 782.44,850.06 782.44,850.06
             782.44,850.06 779.94,847.94 779.94,847.94" />
  <path id="DS - Balken 3"
        fill="none" stroke="black" stroke-width="1"
        d="M 711.97,772.03
           C 712.19,772.72 711.92,850.02 712.05,850.02
             712.17,850.02 753.06,849.94 753.06,849.94
             753.06,849.94 752.96,772.04 752.96,772.04
             752.96,772.04 751.17,770.00 751.17,770.00
             751.17,770.00 713.00,770.09 713.00,770.09
             713.00,770.09 711.96,772.04 711.96,772.04" />
  <path id="DS - Diagram Achsen"
        fill="none" stroke="black" stroke-width="1"
        d="M 657.96,868.89
           C 657.96,868.89 658.00,734.18 658.00,734.18
             658.00,734.18 658.73,731.09 658.73,731.09
             658.73,731.09 662.00,730.18 662.00,730.18
             662.00,730.18 664.00,733.27 664.00,733.27
             664.00,733.27 664.00,864.36 664.00,864.36
             664.00,864.36 913.82,864.00 913.82,864.00
             913.82,864.00 917.27,867.82 917.27,867.82
             917.27,867.82 916.55,872.36 916.36,872.36
             916.18,872.36 659.98,871.98 659.98,871.98
             659.98,871.98 658.24,869.16 657.87,868.91" />
  <path id="DS - S3"
        fill="none" stroke="black" stroke-width="1"
        d="M 944.73,480.73
           C 944.73,480.73 991.45,479.64 991.45,479.64
             995.82,466.91 982.00,430.55 964.73,423.64
             947.27,409.27 929.45,405.09 912.18,403.64
             912.18,403.64 911.27,449.82 911.27,449.82
             928.00,450.55 943.09,463.27 945.27,480.55" />
  <path id="DS- S"
        fill="none" stroke="black" stroke-width="1"
        d="M 807.09,580.64
           C 807.09,580.64 854.91,575.73 854.91,575.73
             857.73,589.73 865.82,615.64 899.09,615.64
             899.09,615.64 899.75,658.50 899.75,658.50
             875.25,662.50 809.75,651.25 806.94,581.00M 912.00,614.82
           C 912.00,614.82 912.45,658.00 912.45,658.00
             912.45,658.00 935.00,658.00 935.00,658.00
             970.38,648.38 991.50,627.75 995.00,599.62
             1000.07,556.73 983.00,536.25 957.12,522.88
             957.12,522.88 885.50,495.88 885.62,495.75
             875.50,492.00 865.75,485.00 866.62,476.62
             866.62,476.62 867.00,466.75 867.00,466.75
             871.38,456.25 890.88,449.12 899.38,450.12
             899.38,450.12 899.00,403.27 899.00,403.27
             867.55,400.27 811.36,429.09 812.82,470.36
             806.00,510.25 839.75,534.25 850.23,537.77
             859.61,544.61 934.04,566.61 940.05,575.69
             945.35,580.74 946.19,597.06 938.00,603.27
             932.19,610.44 921.56,614.69 912.18,614.55M 916.55,593.45" />
  <path id="DS - STATISTIK"
        fill="none" stroke="black" stroke-width="1"
        d="M 685.91,286.18
           C 685.63,286.27 685.82,286.00 684.27,287.64
             685.91,286.45 639.64,332.18 639.73,332.18
             647.49,335.57 645.39,386.91 603.45,368.36
             603.45,368.36 593.45,356.09 593.45,356.09
             589.18,353.09 590.18,315.27 629.00,322.27
             629.00,322.27 672.82,277.64 672.82,277.64
             660.09,262.64 673.82,219.64 710.00,237.55
             719.78,242.38 722.94,254.81 722.45,263.82
             722.45,263.82 746.88,274.94 746.88,274.94
             749.12,269.75 762.88,264.50 774.75,270.19
             774.75,270.19 857.25,188.25 857.25,188.25
             838.00,168.75 859.00,120.75 897.00,138.38
             904.88,141.56 914.27,150.91 915.09,163.18
             915.09,163.18 914.45,175.91 914.45,175.91
             911.27,188.91 893.00,207.18 869.09,196.91
             869.09,196.91 785.73,281.27 785.73,281.27
             792.36,292.91 783.18,313.00 768.73,314.36
             768.73,314.36 758.45,314.82 758.45,314.82
             746.82,312.82 737.55,300.00 740.09,287.82
             740.09,287.82 716.00,277.73 716.00,277.73
             710.64,285.82 698.64,291.91 685.91,286.18" />
  <path id="DS - D1"
        fill="none" stroke="black" stroke-width="1"
        d="M 647.62,406.88
           C 647.62,406.88 647.62,657.12 647.62,657.12
             647.62,657.12 592.62,658.00 592.62,658.00
             592.62,658.00 589.25,655.38 589.25,655.38
             589.25,655.38 588.50,412.12 588.50,412.12
             588.50,412.12 592.12,407.50 592.12,407.50
             592.12,407.50 647.61,406.91 647.61,406.91" />
  <path id="DS - D2"
        fill="none" stroke="black" stroke-width="1"
        d="M 726.09,503.64
           C 726.09,503.64 726.00,566.18 726.00,566.18
             727.09,579.36 711.45,611.18 687.36,611.91
             687.36,611.91 660.09,611.91 660.09,611.91
             660.09,611.91 660.09,656.82 660.09,656.82
             660.09,656.82 694.09,657.18 694.09,657.18
             749.00,656.50 780.75,604.00 782.25,567.00
             782.50,567.00 783.38,513.88 783.38,513.88
             780.88,494.38 777.33,421.67 699.75,407.88
             699.75,407.88 660.36,407.64 660.36,407.64
             660.36,407.64 659.91,454.64 659.91,454.64
             659.91,454.64 686.64,454.82 686.64,454.82
             701.25,454.75 727.96,477.26 726.25,503.75" />
  <path id="DS - Statistik verbinder"
        fill="none" stroke="black" stroke-width="1"
        d="M 794.09,330.00
           C 794.09,330.00 843.09,330.00 843.09,330.00
             843.09,330.00 843.19,393.00 843.19,393.00
             843.19,393.00 815.82,400.73 801.07,423.02
             801.07,423.02 794.00,423.04 794.00,423.04
             794.00,423.04 794.06,330.12 794.06,330.12M 872.00,264.00
           C 872.00,264.00 871.96,387.96 871.96,387.96
             871.96,387.96 885.04,388.04 885.04,388.04
             885.25,382.85 917.12,379.33 917.09,380.06
             917.09,380.06 916.91,263.87 916.91,263.87
             916.91,263.87 871.98,264.00 871.98,264.00M 660.00,612.13
           C 660.00,612.13 660.09,612.00 660.09,612.00M 798.50,416.00M 687.50,455.00M 725.00,496.75
           C 725.00,496.75 726.25,570.75 726.25,570.75
             716.25,598.25 706.14,608.91 685.12,611.81
             685.12,611.81 660.18,612.00 660.18,612.00M 646.00,382.00" />
  <path id="DS - Statistik verbinder #1"
        fill="none" stroke="black" stroke-width="1"
        d="M 720.45,370.00
           C 720.45,370.00 768.00,370.00 768.00,370.00
             768.00,370.00 769.18,409.00 769.18,409.00
             769.18,409.00 758.45,409.73 758.45,409.73
             750.00,398.45 733.29,387.68 720.02,389.04
             720.02,389.04 719.98,370.04 719.98,370.04M 735.00,375.64" />
  <path id="IT - Leiterplatte 1"
        fill="none" stroke="black" stroke-width="1"
        d="M 246.03,672.00
           C 246.03,672.00 230.03,671.94 230.03,671.94
             230.03,671.94 230.06,703.75 230.06,703.75
             230.06,703.75 212.06,721.94 212.06,721.94
             212.06,721.94 211.94,765.06 211.94,765.06
             178.81,778.31 200.96,814.52 215.02,813.02
             215.02,813.02 225.04,813.02 225.04,813.02
             239.45,815.18 261.18,777.36 228.18,764.91
             228.18,764.91 228.00,728.45 228.00,728.45
             228.00,728.45 246.03,709.00 246.03,709.00
             246.03,709.00 246.06,672.03 246.06,672.03M 220.00,805.31M 223.36,724.00M 276.00,672.00
           C 276.00,672.00 292.01,672.00 292.01,672.00
             292.01,672.00 292.04,723.96 292.04,723.96
             292.04,723.96 320.03,750.03 320.03,750.03
             320.03,750.03 320.00,782.02 320.00,782.02
             320.00,782.02 301.98,782.00 301.98,782.00
             301.98,782.00 302.05,757.03 302.05,757.03
             302.05,757.03 276.03,730.97 276.03,730.97
             276.03,730.97 276.00,672.00 276.00,672.00M 319.00,706.73
           C 319.00,706.73 318.94,671.94 318.94,671.94
             318.94,671.94 335.94,671.88 335.94,671.88
             335.94,671.88 336.06,701.88 336.06,701.88
             336.06,701.88 359.00,723.88 359.00,723.88
             359.00,723.88 411.97,723.97 411.97,723.97
             411.97,723.97 458.03,766.03 458.03,766.03
             458.03,766.03 470.97,766.00 470.97,766.00
             478.91,765.73 498.79,793.37 471.55,805.09
             471.55,805.09 467.41,805.91 467.41,805.91
             467.41,805.91 462.00,806.03 461.97,806.03
             448.74,806.70 440.00,787.00 446.30,777.09
             446.30,777.09 408.27,740.09 408.27,740.09
             408.27,740.09 351.91,740.18 351.91,740.18
             351.91,740.18 318.91,706.73 318.91,706.73M 464.84,797.41M 435.43,786.17" />
  <path id="IT - Leiterplatte 2"
        fill="none" stroke="black" stroke-width="1"
        d="M 167.04,254.91
           C 167.00,254.96 167.09,304.91 167.09,304.91
             167.09,304.91 196.00,333.96 196.00,333.96
             196.00,333.96 195.87,385.04 195.87,385.04
             195.87,385.04 213.87,385.00 213.87,385.00
             213.87,385.00 214.13,326.04 214.13,326.04
             214.13,326.04 186.04,299.00 186.04,299.00
             186.04,299.00 186.38,255.06 186.38,255.06
             193.34,256.11 224.91,221.45 184.09,199.83
             184.09,199.83 169.78,199.78 169.78,199.78
             154.00,198.09 129.59,239.79 167.09,254.91M 184.26,199.43M 195.50,292.56" />
  <path id="IT - Leiterplatte 3"
        fill="none" stroke="black" stroke-width="1"
        d="M 261.94,385.09
           C 261.94,385.09 260.91,198.82 260.91,198.82
             273.82,197.82 309.73,157.82 261.18,132.27
             261.18,132.27 247.27,132.09 247.27,132.09
             212.64,137.73 205.03,188.03 243.03,199.94
             243.03,199.94 243.00,384.97 243.00,384.97
             243.00,384.97 262.00,385.00 262.00,385.00M 286.00,160.82M 242.95,201.50" />
  <path id="IT - Leiterplatte 4"
        fill="none" stroke="black" stroke-width="1"
        d="M 286.51,384.42
           C 286.51,384.42 303.89,384.54 303.89,384.54
             303.89,384.54 304.13,312.76 304.13,312.76
             304.13,312.76 326.95,291.59 326.83,291.59
             326.71,291.59 352.96,291.48 352.85,291.59
             352.73,291.71 383.96,259.78 383.96,259.78
             383.96,259.78 384.00,241.00 384.00,241.00M 384.01,241.00
           C 389.50,243.37 418.47,210.78 380.99,194.87
             380.99,194.87 370.99,194.99 370.99,194.99
             370.99,194.99 370.67,194.91 370.73,194.88M 370.98,194.99
           C 342.77,202.89 351.16,237.54 367.96,240.96M 367.87,241.04
           C 367.87,241.04 368.00,254.00 368.00,254.00
             368.00,254.00 348.47,273.27 348.47,273.27
             348.47,273.27 319.50,273.86 319.50,273.86
             319.50,273.86 287.34,305.90 287.34,305.90
             287.34,305.90 286.63,384.54 286.63,384.54" />
  <path id="IT - &gt;"
        fill="none" stroke="black" stroke-width="1"
        d="M 384.00,804.88
           C 384.00,804.88 384.19,822.12 384.19,822.12
             384.19,822.12 411.69,844.38 411.69,844.38
             411.69,844.38 411.75,846.88 411.75,846.88
             411.75,846.88 384.12,868.94 384.12,868.94
             384.12,868.94 383.94,884.88 383.94,884.88
             383.94,884.88 387.56,886.25 387.56,886.25
             387.56,886.25 430.19,850.88 430.25,850.88
             430.31,850.88 430.25,842.31 430.25,842.31
             430.25,842.31 388.88,804.81 388.88,804.81
             388.88,804.81 383.81,804.88 383.88,804.88" />
  <path id="IT - /"
        fill="none" stroke="black" stroke-width="1"
        d="M 358.69,785.50
           C 358.69,785.50 350.62,808.88 350.62,808.88
             350.62,808.88 343.69,833.00 343.69,833.00
             343.69,833.00 325.81,893.88 325.81,893.88
             325.81,893.88 325.75,900.19 325.75,900.19
             325.75,900.19 328.94,902.50 328.94,902.50
             328.94,902.50 332.25,903.75 332.25,903.75
             332.25,903.75 339.25,898.00 339.25,898.00
             339.25,898.00 343.94,883.88 343.94,883.88
             343.94,883.88 370.56,792.94 370.56,792.94
             370.56,792.94 370.00,788.81 370.00,788.75
             370.00,788.69 366.62,785.19 366.62,785.19
             366.62,785.19 362.06,785.12 362.06,785.12
             362.06,785.12 358.62,785.56 358.62,785.56" />
  <path id="IT - &lt;"
        fill="none" stroke="black" stroke-width="1"
        d="M 307.88,886.00
           C 307.88,886.00 311.16,886.06 311.12,886.06
             311.09,886.06 312.03,885.09 312.03,885.09
             312.03,885.09 312.06,869.09 312.06,869.09
             312.06,869.09 285.00,847.00 285.00,847.00
             285.00,847.00 285.06,845.06 285.06,845.06
             285.06,845.06 312.06,822.00 312.06,822.00
             312.06,822.00 312.09,805.91 312.06,805.91
             312.03,805.91 308.12,803.84 308.12,803.84
             308.12,803.84 265.94,841.03 265.94,841.03
             265.94,841.03 266.03,851.00 266.00,851.00
             265.97,851.00 307.91,886.06 307.91,886.06" />
  <path id="IT - text"
        fill="none" stroke="black" stroke-width="1"
        d="M 182.27,434.09
           C 182.27,434.09 182.09,402.91 182.09,402.91
             182.09,402.91 239.09,403.00 239.09,403.00
             239.09,403.00 239.00,650.94 239.00,650.94
             239.00,650.94 183.33,650.67 183.33,650.67
             183.33,650.67 182.33,433.67 182.33,433.67M 469.67,402.33
           C 469.67,402.33 272.67,402.00 272.67,402.00
             272.67,402.00 273.67,451.67 273.67,451.67
             273.67,451.67 343.33,451.00 343.33,451.00
             343.33,451.00 342.33,651.67 342.33,651.67
             342.33,651.67 401.00,651.67 401.00,651.67
             401.00,651.67 401.00,450.67 401.00,450.67
             401.00,450.67 472.00,450.33 472.00,450.33
             472.00,450.33 469.33,402.67 469.33,402.67" />
</svg>
