<?xml version="1.0" encoding="UTF-8" standalone="no"?>
<svg
   width="21.3333in"
   height="14.2222in"
   viewBox="0 0 1536 1024"
   version="1.1"
   id="svg1"
   sodipodi:docname="logo-svg-v2.svg"
   inkscape:version="1.4 (e7c3feb1, 2024-10-09)"
   xmlns:inkscape="http://www.inkscape.org/namespaces/inkscape"
   xmlns:sodipodi="http://sodipodi.sourceforge.net/DTD/sodipodi-0.dtd"
   xmlns="http://www.w3.org/2000/svg"
   xmlns:svg="http://www.w3.org/2000/svg">
  <sodipodi:namedview
     id="namedview1"
     pagecolor="#ffffff"
     bordercolor="#000000"
     borderopacity="0.25"
     inkscape:showpageshadow="2"
     inkscape:pageopacity="0.0"
     inkscape:pagecheckerboard="0"
     inkscape:deskcolor="#d1d1d1"
     inkscape:document-units="in"
     inkscape:zoom="0.38928347"
     inkscape:cx="978.72123"
     inkscape:cy="914.50068"
     inkscape:window-width="1712"
     inkscape:window-height="1069"
     inkscape:window-x="0"
     inkscape:window-y="43"
     inkscape:window-maximized="0"
     inkscape:current-layer="svg1" />
  <defs
     id="defs1" />
  <path
     id="MI - Plus"
     fill="none"
     stroke="#000000"
     stroke-width="1"
     d="m 1380,687 h 53 v 32 c 0,3.03 -0.49,11.42 1.02,13.69 1.73,2.58 5.25,2.29 7.98,2.31 h 38 l -1,47 h -31 c -3.1,0 -10.24,-0.45 -12.69,1.17 -2.6,1.74 -2.29,5.08 -2.31,7.83 v 37 h -31 l -21.9537,-0.0267 -0.093,-45.76125 L 1365,782 h -31 v -22 l -0.013,-12.04635 0.046,-13.76826 L 1365,734 c 2.8999,-0.0174 10.47,0.45 12.69,-1.02 2.58,-1.73 2.29,-5.25 2.31,-7.98 z"
     sodipodi:nodetypes="ccsccccscccccccccccsccc" />
  <path
     id="MI - Herzschlag"
     fill="none"
     stroke="#000000"
     stroke-width="1"
     d="m 1225,789 3.74,-13 13.5,-51 6.33,-21 4.8,-20 6.76,-25 c 1.13,-4.5 1.64,-7.36 6.89,-7.89 2.69,-0.27 6.24,-0.03 8,2.32 1.24,1.66 2.1,7.24 2.71,9.57 l 5.07,22 8.99,42 c 0.78,3.61 3.1,15.25 5.06,17.69 4.65,5.78 17.95,0.39 20.74,6.46 0.36,1.27 0.42,3.45 0,4.81 -0.81,5.67 -6.07,5.09 -10.58,5.03 -3.9,-0.06 -18.3,-0.59 -20.7,-2.59 -2.66,-2.21 -3.2,-8.06 -3.96,-11.4 l -6.77,-29 -3.64,-18.99 c -0.58,-2.05 -1.89,-5.48 -4.71,-4.52 -2.34,0.79 -3.52,5.38 -4.23,7.51 l -7,23 -4.71,18 -6.57,20 -6.14,23 -6.49,21 -4.22,14 c -0.51,2.04 -1.23,5.77 -2.69,7.26 -1.39,1.42 -4.08,1.91 -5.97,1.43 -3.35,-0.85 -4.08,-4.81 -4.83,-7.69 l -5.1,-21 -6.15,-24 -9.971,-38 c -2.1205,-9.68415 -13.469,17.13 -20.329,20.99 -3.96,2.2 -14.79,0.03 -19.83,0 h -51 c -2.9,0 -6.35,0.29 -8.77,-1.59 -4.45,-3.45 -3.91,-11.2 6.77,-11.4 h 57 c 2.31,0 5.63,0.22 7.62,-1.02 1.98,-1.24 4.67,-5.88 5.93,-7.98 l 11.63,-21 c 3.3,-5.21 5.97,-12.57 13.71,-9.26 4.77,2.03 7.5,15.33 8.74,20.26 l 11.85,44 c 2.35,7.23 4.5892,27.59375 8.52,17 z" />
  <path
     id="MI - Kopf"
     fill="none"
     stroke="black"
     stroke-width="1"
     d="M 1220.00,374.00            C 1220.00,362.53 1221.07,332.34 1217.53,323.00              1215.00,316.31 1209.14,307.39 1205.42,301.00              1193.46,280.38 1180.29,258.66 1180.00,234.00              1179.75,212.39 1181.77,201.46 1188.67,181.00              1191.05,173.91 1194.81,163.86 1199.24,158.00              1208.72,145.46 1220.13,137.67 1234.00,130.75              1251.94,121.80 1271.92,116.77 1292.00,117.00              1315.71,117.28 1345.31,125.94 1364.00,140.67              1383.26,155.84 1397.96,184.29 1397.96,209.00              1397.96,209.00 1397.96,223.00 1397.96,223.00              1397.96,223.00 1397.01,232.00 1397.01,232.00              1396.96,234.54 1396.93,237.55 1397.64,240.00              1398.98,244.67 1413.11,266.43 1416.69,272.00              1419.06,275.69 1424.29,282.67 1424.33,287.00              1424.45,297.53 1408.25,294.40 1403.60,300.28              1399.38,305.60 1405.71,310.69 1404.76,317.00              1403.97,322.23 1399.61,324.30 1399.33,327.42              1399.10,330.04 1402.19,332.58 1400.85,335.83              1399.70,338.60 1394.42,341.35 1392.75,346.00              1391.11,350.59 1395.20,359.15 1393.77,367.00              1391.43,379.92 1372.72,377.11 1363.00,377.00              1351.28,376.86 1343.50,371.69 1334.00,372.04              1320.37,372.55 1324.77,381.31 1310.00,380.99              1310.00,380.99 1301.00,380.09 1301.00,380.09              1301.00,380.09 1256.00,377.00 1256.00,377.00              1256.00,377.00 1220.00,374.00 1220.00,374.00 Z            M 1300.00,166.00            C 1297.68,165.81 1295.48,165.87 1294.02,163.69              1290.90,159.00 1296.60,148.39 1287.99,148.16              1280.65,147.97 1282.19,155.09 1281.98,160.00              1281.91,161.61 1281.84,164.96 1279.74,165.38              1277.40,165.84 1276.41,162.70 1276.15,160.99              1275.58,157.42 1277.50,150.59 1272.85,149.32              1263.94,146.87 1265.40,155.85 1264.94,161.00              1264.74,163.33 1263.57,167.43 1260.30,165.83              1256.32,163.89 1259.29,155.52 1256.98,152.60              1254.96,150.04 1248.76,150.71 1247.02,153.31              1245.55,155.53 1246.00,163.10 1246.00,166.00              1234.13,168.25 1234.00,172.65 1234.00,183.00              1230.73,183.00 1220.67,182.45 1218.31,184.02              1215.33,186.01 1215.33,191.99 1218.31,193.98              1220.67,195.55 1230.73,195.00 1233.84,195.00              1233.96,196.23 1234.01,197.75 1233.84,198.94              1231.54,206.78 1221.31,200.04 1217.60,203.61              1215.39,205.74 1215.46,211.93 1218.43,213.43              1220.29,214.36 1231.22,214.00 1234.00,214.00              1234.00,214.00 1234.00,220.00 1234.00,220.00              1230.73,220.00 1220.67,219.45 1218.31,221.02              1215.33,223.01 1215.33,228.99 1218.31,230.98              1220.67,232.55 1230.73,232.00 1234.00,232.00              1234.00,232.00 1234.00,239.00 1234.00,239.00              1225.58,239.00 1214.73,236.47 1216.15,245.94              1217.23,253.12 1226.79,248.05 1231.86,251.02              1235.00,252.87 1234.86,256.17 1236.89,258.77              1239.39,262.00 1242.30,261.90 1246.00,262.00              1246.00,265.72 1245.45,274.94 1247.17,277.85              1249.38,281.58 1254.62,281.58 1256.83,277.85              1258.55,274.94 1258.00,265.72 1258.00,262.00              1258.00,262.00 1265.00,262.00 1265.00,262.00              1265.00,265.41 1264.46,275.23 1266.02,277.77              1268.28,281.47 1273.72,281.47 1275.98,277.77              1277.54,275.23 1277.00,265.41 1277.00,262.00              1277.00,262.00 1281.00,262.00 1281.00,262.00              1281.00,264.78 1280.64,275.71 1281.57,277.57              1283.26,280.93 1290.02,280.42 1291.98,277.57              1293.55,275.29 1293.00,265.21 1293.00,262.00              1293.00,262.00 1299.00,262.00 1299.00,262.00              1299.00,265.14 1298.61,275.43 1299.74,277.75              1301.48,281.28 1307.67,281.53 1309.98,277.75              1311.53,275.24 1311.00,265.41 1311.00,262.00              1320.61,261.99 1325.96,261.12 1327.00,250.00              1329.98,250.00 1338.37,250.49 1340.57,248.98              1343.08,247.25 1343.73,241.99 1341.26,239.99              1339.35,238.44 1328.92,239.00 1326.00,239.00              1326.00,239.00 1326.00,232.00 1326.00,232.00              1329.16,232.00 1338.36,232.53 1340.69,230.98              1344.08,228.72 1343.40,222.43 1339.77,220.74              1337.45,219.65 1328.98,220.00 1326.00,220.00              1326.00,220.00 1326.00,214.00 1326.00,214.00              1326.00,214.00 1335.00,214.00 1335.00,214.00              1344.78,213.82 1344.73,207.19 1342.26,204.60              1338.49,200.66 1329.30,206.16 1327.16,198.94              1326.99,197.75 1327.04,196.23 1327.16,195.00              1330.03,195.00 1338.42,195.49 1340.63,193.98              1343.72,191.95 1343.51,186.19 1340.63,184.17              1338.12,182.49 1330.19,183.00 1327.00,183.00              1326.42,170.31 1325.52,166.62 1312.00,166.00              1312.00,162.67 1312.44,155.88 1310.83,153.15              1309.11,150.25 1303.39,148.61 1301.02,151.60              1299.46,153.58 1300.00,163.11 1300.00,166.00 Z" />
  <path
     id="MI - I"
     fill="none"
     stroke="black"
     stroke-width="1"
     d="M 1422.15,405.02            C 1427.16,403.24 1434.56,404.00 1440.00,404.00              1440.00,404.00 1474.00,404.00 1474.00,404.00              1481.80,404.14 1480.99,407.14 1481.00,414.00              1481.00,414.00 1481.00,597.00 1481.00,597.00              1481.00,597.00 1481.00,645.00 1481.00,645.00              1480.86,652.49 1478.74,651.99 1472.00,652.00              1472.00,652.00 1426.00,652.00 1426.00,652.00              1419.39,651.87 1418.13,650.61 1418.00,644.00              1418.00,644.00 1418.00,598.00 1418.00,598.00              1418.00,598.00 1418.00,545.00 1418.00,545.00              1418.00,545.00 1419.00,528.00 1419.00,528.00              1419.00,528.00 1419.00,454.00 1419.00,454.00              1419.00,454.00 1419.00,415.00 1419.00,415.00              1419.01,410.28 1418.40,408.34 1422.15,405.02 Z" />
  <path
     id="MI - M"
     fill="none"
     stroke="#000000"
     stroke-width="1"
     d="m 1111,651 c -2.38,-13.27 -0.02,-18.95 0,-31 V 590 460 418 c -0.01,-3.28 -0.8,-9.11 0.61,-11.85 1.9,-3.71 5.86,-3.14 9.39,-3.15 h 54 c 2.97,0.01 6.27,-0.29 8.79,1.6 2.81,2.1 4.54,7.18 5.93,10.4 l 8.97,18 8.28,18 24.9258,58.18015 c 5.25,10.24 10.1661,35.84129 13.26,26 l 5.68,-11 4.63,-11 7.58,-15 15.36,-33 12.01,-26 7.3,-14 c 1.55,-3.48 6.9342,-18.33015 9.6942,-20.16015 1.89,-1.24 5.37,-1.02 7.59,-1.02 h 53 c 10.15,0.14 10.99,3.94 11,13 v 181 37 c 0,4.1 0.67,11.57 -1.74,14.85 -2.58,3.54 -6.38,3.14 -10.26,3.15 h -19 l -16,-1 c -10.43,-0.02 -14.98,1.21 -15,-11 l -1.8442,-84.81985 c -0.1928,-8.8679 4.1166,-60.09144 -1,-43 l -13.51,29 -7.27,17 -6.03,11 -12.75,27 c -2.67,4.86 -6.2058,16.38985 -9.9858,18.79985 -1.95,1.24 -5.34,1.02 -7.61,1.02 h -22 c -2.27,0 -5.66,0.22 -7.61,-1.02 -2.14,-1.37 -4.01,-5.67 -5.13,-7.98 l -8.51,-18 -9.64,-21 -6.85,-13 -6.58,-15 -5.42,-10 c -3.74,-7.3 -10.5789,-30.11024 -11.7188,-20.48204 L 1173,589 l 1,14 v 33 l -1.17,13.43 -7.83,1.57 z"
     sodipodi:nodetypes="cccccccccccccccccccccscccscccccsccccccsscccccccccccccc" />
  <path
     id="DS - Balken 1"
     fill="none"
     stroke="#000000"
     stroke-width="1"
     d="m 849.03,695.09 2.91,-3.15 h 38.09 l 2,3.03 c 0,0 -0.09,154.97 -0.06,154.97 0.03,0 -41.94,0 -41.94,0.03 0,0.03 -0.97,-2.97 -0.97,-2.97 0,0 -0.06,-151.06 -0.03,-151.91 z"
     sodipodi:nodetypes="ccccssccc" />
  <path
     id="DS - Balken 2"
     fill="none"
     stroke="#000000"
     stroke-width="1"
     d="m 780.06,737 c 0.06,-0.06 2.88,-1.94 2.88,-1.94 L 819.06,735 c 0,0 2.88,1.88 2.94,1.88 0.06,0 0.12,110.87 0.12,110.87 l -4.24,2.37 -35.44,-0.06 -2.48,-2.09 c 0,-0.17 0.04,-110.91 0.1,-110.97 z"
     sodipodi:nodetypes="sccsccccs" />
  <path
     id="DS - Balken 3"
     fill="none"
     stroke="#000000"
     stroke-width="1"
     d="m 712.05,850.02 c 0.12,0 41.01,-0.08 41.01,-0.08 l -0.1,-77.9 -1.79,-2.04 -38.17,0.09 -1.035,1.945 c 0.225,0.685 -0.045,77.985 0.085,77.985 z"
     sodipodi:nodetypes="scccccs" />
  <path
     id="DS - Diagram Achsen"
     fill="none"
     stroke="#000000"
     stroke-width="1"
     d="m 658,734.18 0.73,-3.09 3.27,-0.91 2,3.09 v 131.09 l 249.82,-0.36 3.45,3.82 c 0,0 -0.72,4.54 -0.91,4.54 -0.18,0 -256.38,-0.38 -256.38,-0.38 0,0 -1.74,-2.82 -2.065,-3.08 z"
     sodipodi:nodetypes="cccccccsccc" />
  <path
     id="DS - S3"
     fill="none"
     stroke="#000000"
     stroke-width="1"
     d="m 991.45,479.64 c 4.37,-12.73 -9.45,-49.09 -26.72,-56 -17.46,-14.37 -35.28,-18.55 -52.55,-20 l -0.91,46.18 c 16.73,0.73 31.82,13.45 33.73,30.82 z"
     sodipodi:nodetypes="cccccc" />
  <path
     id="DS- S"
     fill="none"
     stroke="#000000"
     stroke-width="1"
     d="m 854.91,575.73 c 2.82,14 10.91,39.91 44.18,39.91 l 0.66,42.86 c -24.5,4 -90,-7.25 -92.735,-77.68 z m 57.54,82.94682 h 22.4936 C 970.3236,649.05682 991.5,627.75 995,599.62 c 5.07,-42.89 -12,-63.37 -37.88,-76.74 0,0 -71.62,-27 -71.5,-27.13 C 875.5,492 865.75,485 866.62,476.62 l 0.38,-9.87 c 4.38,-10.5 23.88,-17.63 32.38,-16.63 L 899,403.27 c -31.45,-3 -87.64,25.82 -86.18,67.09 -6.82,39.89 26.93,63.89 37.41,67.41 9.38,6.84 83.81,28.84 89.82,37.92 5.3,5.05 6.14,21.37 -2.05,27.58 -5.81,7.17 -16.44,11.42 -25.91,11.415 z"
     sodipodi:nodetypes="cccccccccccccccccccc" />
  <path
     id="DS - STATISTIK"
     fill="none"
     stroke="#000000"
     stroke-width="1"
     d="m 639.73,332.18 c 7.76,3.39 5.66,54.73 -36.28,36.18 l -10,-12.27 c -4.27,-3 -3.27,-40.82 35.55,-33.82 l 43.82,-44.63 c -12.73,-15 1,-58 37.18,-40.09 9.78,4.83 12.94,17.26 12.45,26.27 l 24.43,11.12 c 2.24,-5.19 16,-10.44 27.87,-4.75 l 82.5,-81.94 C 838,168.75 859,120.75 897,138.38 c 7.88,3.18 17.27,12.53 18.09,24.8 l -0.64,12.73 c -3.18,13 -21.45,31.27 -45.36,21 l -83.36,84.36 c 6.63,11.64 -2.55,31.73 -17,33.09 l -10.28,0.46 c -11.63,-2 -20.9,-14.82 -18.36,-27 L 716,277.73 c -5.36,8.09 -19.38482,14.09901 -32.11482,8.36901 C 668.62033,301.41395 655.01046,316.78254 639.73,332.18 Z"
     sodipodi:nodetypes="ccccccccccccccccccccc" />
  <path
     id="DS - D1"
     fill="none"
     stroke="#000000"
     stroke-width="1"
     d="m 647.62,657.12 -55,0.88 -3.37,-2.62 -0.75,-243.26 3.62,-4.62 55.495,-0.605 z"
     sodipodi:nodetypes="ccccccc" />
  <path
     id="DS - D2"
     fill="none"
     stroke="#000000"
     stroke-width="1"
     d="m 726,566.18 c 1.09,13.18 -14.55,45 -38.64,45.73 h -27.27 v 44.91 l 34,0.36 C 749,656.5 780.75,604 782.25,567 c 0.25,0 1.13,-53.12 1.13,-53.12 -2.5,-19.5 -6.05,-92.21 -83.63,-106 l -39.83926,-0.24 -7.4e-4,47 26.73,0.18 c 14.61,-0.07 41.32,22.44 39.53,48.875 z"
     sodipodi:nodetypes="ccccccccccccc" />
  <path
     id="DS - Statistik verbinder"
     fill="none"
     stroke="#000000"
     stroke-width="1"
     d="m 843.09,330 0.1,63 c 0,0 -27.37,7.73 -42.12,30.02 l -7.07,0.02 0.075,-92.98 z m 28.87,57.96 13.08,0.08 c 0.21,-5.19 32.08,-8.71 32.05,-7.98 L 916.91,263.87 871.99,264 Z M 660,612.13 660.09,612"
     sodipodi:nodetypes="cccccccccccccc" />
  <path
     id="DS - Statistik verbinder #1"
     fill="none"
     stroke="#000000"
     stroke-width="1"
     d="M 769.13233,370.11919 769.2396,409.77475 758.45,409.73 C 750,398.45 733.29,387.68 720.02,389.04 l 0.0511,-19.02 z"
     sodipodi:nodetypes="cccccc" />
  <path
     id="IT - Leiterplatte 1"
     fill="none"
     stroke="#000000"
     stroke-width="1"
     d="m 230.03,671.94 0.03,31.81 -18,18.19 -0.12,43.12 c -33.13,13.25 -10.98,49.46 3.08,47.96 h 10.02 c 14.41,2.16 36.14,-35.66 3.14,-48.11 L 228,728.45 246.03,709 l 0.015,-36.985 z m 61.98,0.06 0.03,51.96 27.99,26.07 L 320,782.02 301.98,782 302.05,757.03 276.03,730.97 276,672 Z m 26.93,-0.06 17,-0.06 0.12,30 22.94,22 52.97,0.09 46.06,42.06 12.94,-0.03 c 7.94,-0.27 27.82,27.37 0.58,39.09 l -4.14,0.82 c 0,0 -5.41,0.12 -5.44,0.12 C 448.74,806.7 440,787 446.3,777.09 l -38.03,-37 -56.36,0.09 -32.955,-33.45 z"
     style="fill:none;fill-opacity:1"
     sodipodi:nodetypes="ccccccccccccccccccccccccccccccccccc" />
  <path
     id="IT - Leiterplatte 2"
     fill="none"
     stroke="black"
     stroke-width="1"
     d="M 167.04,254.91            C 167.00,254.96 167.09,304.91 167.09,304.91              167.09,304.91 196.00,333.96 196.00,333.96              196.00,333.96 195.87,385.04 195.87,385.04              195.87,385.04 213.87,385.00 213.87,385.00              213.87,385.00 214.13,326.04 214.13,326.04              214.13,326.04 186.04,299.00 186.04,299.00              186.04,299.00 186.38,255.06 186.38,255.06              193.34,256.11 224.91,221.45 184.09,199.83              184.09,199.83 169.78,199.78 169.78,199.78              154.00,198.09 129.59,239.79 167.09,254.91M 184.26,199.43M 195.50,292.56"
     style="fill:none;fill-opacity:1" />
  <path
     id="IT - Leiterplatte 3"
     fill="none"
     stroke="black"
     stroke-width="1"
     d="M 261.94,385.09            C 261.94,385.09 260.91,198.82 260.91,198.82              273.82,197.82 309.73,157.82 261.18,132.27              261.18,132.27 247.27,132.09 247.27,132.09              212.64,137.73 205.03,188.03 243.03,199.94              243.03,199.94 243.00,384.97 243.00,384.97              243.00,384.97 262.00,385.00 262.00,385.00M 286.00,160.82M 242.95,201.50"
     style="fill:none;fill-opacity:1" />
  <path
     id="IT - Leiterplatte 4"
     fill="none"
     stroke="#000000"
     stroke-width="1"
     d="m 384.01,241 c 5.49,2.37 32.49911,-31.3181 -2.15721,-46.20844 l -10.76634,-0.0373 -0.135,-0.055 c -28.085,7.955 -19.79145,42.84078 -3.03645,46.30078 l 0.085,13 -19.53,19.27 -28.97,0.59 -32.16,32.04 -0.77,78.57998 17.32,0.06 0.24,-71.78 c 0,0 22.82,-21.17 22.7,-21.17 -0.12,0 26.13,-0.11 26.02,0 -0.12,0.12 31.11,-31.81 31.11,-31.81 L 384,241"
     sodipodi:nodetypes="ccccccccccccsscc"
     style="fill:none;fill-opacity:1" />
  <path
     id="IT - &gt;"
     fill="none"
     stroke="#000000"
     stroke-width="1"
     d="m 384.19,822.12 27.5,22.26 0.06,2.5 -27.63,22.06 -0.18,15.94 3.62,1.37 c 0,0 42.63,-35.37 42.69,-35.37 0.06,0 0,-8.57 0,-8.57 l -41.37,-37.5 c 0,0 -5.07,0.07 -4.94,0.07 z"
     style="fill:none;fill-opacity:1"
     sodipodi:nodetypes="ccccccscccc" />
  <path
     id="IT - /"
     fill="none"
     stroke="#000000"
     stroke-width="1"
     d="m 350.62,808.88 -6.93,24.12 -17.88,60.88 -0.06,6.31 3.19,2.31 3.31,1.25 7,-5.75 4.69,-14.12 26.62,-90.94 c 0,0 -0.56,-4.13 -0.56,-4.19 0,-0.06 -3.38,-3.56 -3.38,-3.56 l -4.56,-0.07 -3.405,0.41 z"
     style="fill:none;fill-opacity:1"
     sodipodi:nodetypes="cccccccccscccc" />
  <path
     id="IT - &lt;"
     fill="none"
     stroke="#000000"
     stroke-width="1"
     d="m 311.12,886.06 c -0.03,0 0.91,-0.97 0.91,-0.97 l 0.03,-16 L 285,847 l 0.06,-1.94 27,-23.06 c 0,0 0.03,-16.09 0,-16.09 -0.03,0 -3.94,-2.07 -3.94,-2.07 l -42.18,37.19 c 0,0 0.09,9.97 0.06,9.97 -0.03,0 41.895,35.03 41.895,35.03 0,0 3.265,0.03 3.225,0.03 z"
     style="fill:none;fill-opacity:1"
     sodipodi:nodetypes="scccccsccscs" />
  <path
     id="IT - text"
     fill="none"
     stroke="#000000"
     stroke-width="1"
     d="m 182.27,434.09 -0.18,-31.18 57,0.09 -0.09,247.94 -55.67,-0.27 -1,-217 M 274.93276,401.87429 273.67,451.67 343.33,451 l -1,200.67 H 401 v -201 l 71,-0.34 -0.23724,-47.95571 z"
     style="fill:none;fill-opacity:1"
     sodipodi:nodetypes="ccccccccccccccc" />
</svg>
